ply
format ascii 1.0
comment Original AssetImport geometry-only house
element vertex 66
property float x
property float y
property float z
element face 32
property list uchar int vertex_indices
end_header
-1 0 0.7
1 0 0.7
1 1.2 0.7
-1 1.2 0.7
1 0 -0.7
-1 0 -0.7
-1 1.2 -0.7
1 1.2 -0.7
-1 0 -0.7
-1 0 0.7
-1 1.2 0.7
-1 1.2 -0.7
1 0 0.7
1 0 -0.7
1 1.2 -0.7
1 1.2 0.7
-1 1.2 0.7
1 1.2 0.7
1 1.2 -0.7
-1 1.2 -0.7
-1 0 -0.7
1 0 -0.7
1 0 0.7
-1 0 0.7
-1.1 1.2 0.8
1.1 1.2 0.8
-0.35 2 0.8
1.1 1.2 -0.8
-1.1 1.2 -0.8
-0.35 2 -0.8
-1.1 1.2 -0.8
-1.1 1.2 0.8
-0.35 2 0.8
-0.35 2 -0.8
-0.35 2 -0.8
-0.35 2 0.8
1.1 1.2 0.8
1.1 1.2 -0.8
-1.1 1.2 -0.8
1.1 1.2 -0.8
1.1 1.2 0.8
-1.1 1.2 0.8
0.4 1.35 0
0.68 1.35 0
0.68 2.15 0
0.4 2.15 0
0.68 1.35 -0.28
0.4 1.35 -0.28
0.4 2.15 -0.28
0.68 2.15 -0.28
0.4 1.35 -0.28
0.4 1.35 0
0.4 2.15 0
0.4 2.15 -0.28
0.68 1.35 0
0.68 1.35 -0.28
0.68 2.15 -0.28
0.68 2.15 0
0.4 2.15 0
0.68 2.15 0
0.68 2.15 -0.28
0.4 2.15 -0.28
0.4 1.35 -0.28
0.68 1.35 -0.28
0.68 1.35 0
0.4 1.35 0
3 0 1 2
3 0 2 3
3 4 5 6
3 4 6 7
3 8 9 10
3 8 10 11
3 12 13 14
3 12 14 15
3 16 17 18
3 16 18 19
3 20 21 22
3 20 22 23
3 24 25 26
3 27 28 29
3 30 31 32
3 30 32 33
3 34 35 36
3 34 36 37
3 38 39 40
3 38 40 41
3 42 43 44
3 42 44 45
3 46 47 48
3 46 48 49
3 50 51 52
3 50 52 53
3 54 55 56
3 54 56 57
3 58 59 60
3 58 60 61
3 62 63 64
3 62 64 65
