0
SECTION
2
HEADER
9
$ACADVER
1
AC1009
0
ENDSEC
0
SECTION
2
ENTITIES
0
3DFACE
8
AssetImportCube
62
3
10
-0.5
20
0.5
30
-0.5
11
0.5
21
0.5
31
-0.5
12
0.5
22
-0.5
32
-0.5
13
-0.5
23
-0.5
33
-0.5
0
3DFACE
8
AssetImportCube
62
3
10
-0.5
20
-0.5
30
0.5
11
0.5
21
-0.5
31
0.5
12
0.5
22
0.5
32
0.5
13
-0.5
23
0.5
33
0.5
0
3DFACE
8
AssetImportCube
62
3
10
-0.5
20
-0.5
30
-0.5
11
-0.5
21
-0.5
31
0.5
12
-0.5
22
0.5
32
0.5
13
-0.5
23
0.5
33
-0.5
0
3DFACE
8
AssetImportCube
62
3
10
0.5
20
-0.5
30
0.5
11
0.5
21
-0.5
31
-0.5
12
0.5
22
0.5
32
-0.5
13
0.5
23
0.5
33
0.5
0
3DFACE
8
AssetImportCube
62
3
10
-0.5
20
-0.5
30
-0.5
11
0.5
21
-0.5
31
-0.5
12
0.5
22
-0.5
32
0.5
13
-0.5
23
-0.5
33
0.5
0
3DFACE
8
AssetImportCube
62
3
10
-0.5
20
0.5
30
0.5
11
0.5
21
0.5
31
0.5
12
0.5
22
0.5
32
-0.5
13
-0.5
23
0.5
33
-0.5
0
ENDSEC
0
EOF
